<mxfile host="app.diagrams.net" modified="2023-08-18T16:24:32.969Z" agent="Mozilla/5.0 (Windows NT 10.0; Win64; x64) AppleWebKit/537.36 (KHTML, like Gecko) Chrome/115.0.0.0 Safari/537.36" etag="cPTfOzoQ3DQ7WK0ZZRE6" version="21.6.8" type="device">
  <diagram name="Página-1" id="0yI9eo8hIITtmsqO3cbD">
    <mxGraphModel dx="1434" dy="790" grid="1" gridSize="10" guides="1" tooltips="1" connect="1" arrows="1" fold="1" page="1" pageScale="1" pageWidth="827" pageHeight="1169" math="0" shadow="0">
      <root>
        <mxCell id="0" />
        <mxCell id="1" parent="0" />
        <mxCell id="SyTfuHCewXCyrMTdJa-3-21" style="edgeStyle=orthogonalEdgeStyle;rounded=0;orthogonalLoop=1;jettySize=auto;html=1;exitX=0.25;exitY=0;exitDx=0;exitDy=0;" edge="1" parent="1" source="SyTfuHCewXCyrMTdJa-3-1">
          <mxGeometry relative="1" as="geometry">
            <mxPoint x="310" y="210" as="targetPoint" />
          </mxGeometry>
        </mxCell>
        <mxCell id="SyTfuHCewXCyrMTdJa-3-1" value="Persona" style="swimlane;fontStyle=1;align=center;verticalAlign=top;childLayout=stackLayout;horizontal=1;startSize=26;horizontalStack=0;resizeParent=1;resizeParentMax=0;resizeLast=0;collapsible=1;marginBottom=0;whiteSpace=wrap;html=1;" vertex="1" parent="1">
          <mxGeometry x="220" y="220" width="360" height="230" as="geometry" />
        </mxCell>
        <mxCell id="SyTfuHCewXCyrMTdJa-3-2" value="+ nombre: string&lt;br&gt;+ apellido paterno: string&lt;br&gt;+ apellido materno:&lt;br&gt;+ rut : string&lt;br&gt;+ fecha nacimiento: string&lt;br&gt;+ genero: string&lt;br&gt;+ ocupación : string&lt;br&gt;+ dirección: string&lt;br&gt;+ número contacto : int&lt;br&gt;+ correo electronico: string" style="text;strokeColor=none;fillColor=none;align=left;verticalAlign=top;spacingLeft=4;spacingRight=4;overflow=hidden;rotatable=0;points=[[0,0.5],[1,0.5]];portConstraint=eastwest;whiteSpace=wrap;html=1;" vertex="1" parent="SyTfuHCewXCyrMTdJa-3-1">
          <mxGeometry y="26" width="360" height="144" as="geometry" />
        </mxCell>
        <mxCell id="SyTfuHCewXCyrMTdJa-3-3" value="" style="line;strokeWidth=1;fillColor=none;align=left;verticalAlign=middle;spacingTop=-1;spacingLeft=3;spacingRight=3;rotatable=0;labelPosition=right;points=[];portConstraint=eastwest;strokeColor=inherit;" vertex="1" parent="SyTfuHCewXCyrMTdJa-3-1">
          <mxGeometry y="170" width="360" height="8" as="geometry" />
        </mxCell>
        <mxCell id="SyTfuHCewXCyrMTdJa-3-4" value="+ agregar(rut,nombre,edad,apellido paterno, apellido materno)&lt;br&gt;+quitar(rut,nombre,edad)&lt;br&gt;" style="text;strokeColor=none;fillColor=none;align=left;verticalAlign=top;spacingLeft=4;spacingRight=4;overflow=hidden;rotatable=0;points=[[0,0.5],[1,0.5]];portConstraint=eastwest;whiteSpace=wrap;html=1;" vertex="1" parent="SyTfuHCewXCyrMTdJa-3-1">
          <mxGeometry y="178" width="360" height="52" as="geometry" />
        </mxCell>
        <mxCell id="SyTfuHCewXCyrMTdJa-3-26" value="Vehiculos" style="swimlane;fontStyle=1;align=center;verticalAlign=top;childLayout=stackLayout;horizontal=1;startSize=26;horizontalStack=0;resizeParent=1;resizeParentMax=0;resizeLast=0;collapsible=1;marginBottom=0;whiteSpace=wrap;html=1;" vertex="1" parent="1">
          <mxGeometry x="120" y="490" width="210" height="180" as="geometry" />
        </mxCell>
        <mxCell id="SyTfuHCewXCyrMTdJa-3-27" value="+ patente&lt;br&gt;+tipo&lt;br&gt;+ Permiso Circulación : bool&lt;br&gt;+ Revisión Tecnica :&amp;nbsp;&lt;br&gt;" style="text;strokeColor=none;fillColor=none;align=left;verticalAlign=top;spacingLeft=4;spacingRight=4;overflow=hidden;rotatable=0;points=[[0,0.5],[1,0.5]];portConstraint=eastwest;whiteSpace=wrap;html=1;" vertex="1" parent="SyTfuHCewXCyrMTdJa-3-26">
          <mxGeometry y="26" width="210" height="84" as="geometry" />
        </mxCell>
        <mxCell id="SyTfuHCewXCyrMTdJa-3-28" value="" style="line;strokeWidth=1;fillColor=none;align=left;verticalAlign=middle;spacingTop=-1;spacingLeft=3;spacingRight=3;rotatable=0;labelPosition=right;points=[];portConstraint=eastwest;strokeColor=inherit;" vertex="1" parent="SyTfuHCewXCyrMTdJa-3-26">
          <mxGeometry y="110" width="210" height="8" as="geometry" />
        </mxCell>
        <mxCell id="SyTfuHCewXCyrMTdJa-3-29" value="+ method(type): type" style="text;strokeColor=none;fillColor=none;align=left;verticalAlign=top;spacingLeft=4;spacingRight=4;overflow=hidden;rotatable=0;points=[[0,0.5],[1,0.5]];portConstraint=eastwest;whiteSpace=wrap;html=1;" vertex="1" parent="SyTfuHCewXCyrMTdJa-3-26">
          <mxGeometry y="118" width="210" height="62" as="geometry" />
        </mxCell>
        <mxCell id="SyTfuHCewXCyrMTdJa-3-30" value="Carga" style="swimlane;fontStyle=1;align=center;verticalAlign=top;childLayout=stackLayout;horizontal=1;startSize=26;horizontalStack=0;resizeParent=1;resizeParentMax=0;resizeLast=0;collapsible=1;marginBottom=0;whiteSpace=wrap;html=1;" vertex="1" parent="1">
          <mxGeometry x="420" y="50" width="170" height="150" as="geometry" />
        </mxCell>
        <mxCell id="SyTfuHCewXCyrMTdJa-3-31" value="+ Id: int&lt;br&gt;+ Lugar origen: string&lt;br&gt;+ lugar destino: string&lt;br&gt;+ peso: float&lt;br&gt;´+ volumen: float" style="text;strokeColor=none;fillColor=none;align=left;verticalAlign=top;spacingLeft=4;spacingRight=4;overflow=hidden;rotatable=0;points=[[0,0.5],[1,0.5]];portConstraint=eastwest;whiteSpace=wrap;html=1;" vertex="1" parent="SyTfuHCewXCyrMTdJa-3-30">
          <mxGeometry y="26" width="170" height="74" as="geometry" />
        </mxCell>
        <mxCell id="SyTfuHCewXCyrMTdJa-3-32" value="" style="line;strokeWidth=1;fillColor=none;align=left;verticalAlign=middle;spacingTop=-1;spacingLeft=3;spacingRight=3;rotatable=0;labelPosition=right;points=[];portConstraint=eastwest;strokeColor=inherit;" vertex="1" parent="SyTfuHCewXCyrMTdJa-3-30">
          <mxGeometry y="100" width="170" height="8" as="geometry" />
        </mxCell>
        <mxCell id="SyTfuHCewXCyrMTdJa-3-33" value="agregar(etc)&lt;br&gt;quitar(etc)" style="text;strokeColor=none;fillColor=none;align=left;verticalAlign=top;spacingLeft=4;spacingRight=4;overflow=hidden;rotatable=0;points=[[0,0.5],[1,0.5]];portConstraint=eastwest;whiteSpace=wrap;html=1;" vertex="1" parent="SyTfuHCewXCyrMTdJa-3-30">
          <mxGeometry y="108" width="170" height="42" as="geometry" />
        </mxCell>
        <mxCell id="SyTfuHCewXCyrMTdJa-3-34" value="Contabilidad" style="swimlane;fontStyle=1;align=center;verticalAlign=top;childLayout=stackLayout;horizontal=1;startSize=26;horizontalStack=0;resizeParent=1;resizeParentMax=0;resizeLast=0;collapsible=1;marginBottom=0;whiteSpace=wrap;html=1;" vertex="1" parent="1">
          <mxGeometry x="450" y="530" width="160" height="140" as="geometry" />
        </mxCell>
        <mxCell id="SyTfuHCewXCyrMTdJa-3-35" value="+Id&lt;br&gt;+ Fecha&lt;br&gt;+Activo: int&lt;br&gt;+Pasivo : int" style="text;strokeColor=none;fillColor=none;align=left;verticalAlign=top;spacingLeft=4;spacingRight=4;overflow=hidden;rotatable=0;points=[[0,0.5],[1,0.5]];portConstraint=eastwest;whiteSpace=wrap;html=1;" vertex="1" parent="SyTfuHCewXCyrMTdJa-3-34">
          <mxGeometry y="26" width="160" height="74" as="geometry" />
        </mxCell>
        <mxCell id="SyTfuHCewXCyrMTdJa-3-36" value="" style="line;strokeWidth=1;fillColor=none;align=left;verticalAlign=middle;spacingTop=-1;spacingLeft=3;spacingRight=3;rotatable=0;labelPosition=right;points=[];portConstraint=eastwest;strokeColor=inherit;" vertex="1" parent="SyTfuHCewXCyrMTdJa-3-34">
          <mxGeometry y="100" width="160" height="8" as="geometry" />
        </mxCell>
        <mxCell id="SyTfuHCewXCyrMTdJa-3-37" value="+ method(type): type" style="text;strokeColor=none;fillColor=none;align=left;verticalAlign=top;spacingLeft=4;spacingRight=4;overflow=hidden;rotatable=0;points=[[0,0.5],[1,0.5]];portConstraint=eastwest;whiteSpace=wrap;html=1;" vertex="1" parent="SyTfuHCewXCyrMTdJa-3-34">
          <mxGeometry y="108" width="160" height="32" as="geometry" />
        </mxCell>
      </root>
    </mxGraphModel>
  </diagram>
</mxfile>
